<?xml version="1.0" encoding="utf-8"?>
<!-- Svg Vector Icons : http://www.onlinewebfonts.com/icon -->
<!DOCTYPE svg PUBLIC "-//W3C//DTD SVG 1.1//EN" "http://www.w3.org/Graphics/SVG/1.1/DTD/svg11.dtd">
<svg version="1.1" xmlns="http://www.w3.org/2000/svg" xmlns:xlink="http://www.w3.org/1999/xlink" x="0px" y="0px" viewBox="0 0 1000 1000" enable-background="new 0 0 1000 1000" xml:space="preserve">
<metadata> Svg Vector Icons : http://www.onlinewebfonts.com/icon </metadata>
<g><path d="M895.9,136.8c4.2,18.3,3.2,32.6-3.2,42.8c-6.3,10.2-16.2,18.2-29.6,23.8c-2.8-0.7-6.3-2.1-10.6-4.2c-3.5-1.4-7.9-2.8-13.2-4.2c-5.3-1.4-11.5-2.8-18.5-4.2c-4.2-0.7-8.6-1.2-13.2-1.6c-4.6-0.4-8.6-0.5-12.2-0.5c-4.2,0-8.5,0.4-12.7,1.1c-3.5-4.2-7.2-8.5-11.1-12.7c-3.9-4.2-6.5-12-7.9-23.3c-1.4-19,3.2-34,13.7-44.9c10.6-10.9,24.3-17.4,41.2-19.6c17.6-2.1,34,1.2,49.2,10C883.1,108,892.4,120.6,895.9,136.8z M826.2,99.8c1.4-4.2,2.5-8.5,3.2-12.7c1.4-8.5,0-19-4.2-31.7c-3.5-7.8-8.5-13-14.8-15.9c-6.3-2.8-12.7-4.2-19-4.2c-7.8-0.7-12.2-4.2-13.2-10.6s3-10.9,12.2-13.7c10.6-2.1,22.2-0.7,34.9,4.2c12.7,4.9,22.2,15.5,28.5,31.7c2.8,7.8,4.6,15.7,5.3,23.8c0.7,8.1,0.7,15.3,0,21.7c-0.7,6.3-1.8,11.6-3.2,15.9c-1.4,4.2-2.5,6.7-3.2,7.4c-1.4,1.4-3.3,1.2-5.8-0.5c-2.5-1.8-5.5-3.7-9-5.8C834.3,106.5,830.4,103.3,826.2,99.8L826.2,99.8z M786,219.2c33.8,0,56.2,4.6,67.1,13.7c10.9,9.2,15.2,20.3,12.7,33.3c-2.5,13-9.5,27-21.1,41.8c-11.6,14.8-23.4,27.5-35.4,38.1c-3.5,3.5-10.2,10-20.1,19.6c-9.9,9.5-22,21.1-36.5,34.9c-14.5,13.7-30.1,28.7-47,44.9c-16.9,16.2-33.8,32.8-50.8,49.7c-40.2,38.8-84.9,82.1-134.3,130v270.7c0.7,6.3,4.8,13.6,12.2,21.7c7.4,8.1,16.7,14.6,28,19.6c11.3,4.9,22.4,10,33.3,15.3c10.9,5.3,16.4,12.9,16.4,22.7c0,7.8-5.1,12.2-15.3,13.2c-10.2,1.1-19.2,1.6-27,1.6H407.5c-12,0-23.8-0.7-35.4-2.1c-11.6-1.4-17.4-6-17.4-13.7c0-4.9,2.1-9.5,6.3-13.7c4.2-4.2,9.3-7.8,15.3-10.6c6-2.8,11.8-5.1,17.4-6.9c5.6-1.8,9.9-3.3,12.7-4.8c28.2-14.1,41.6-28.2,40.2-42.3v-13.7v-31.7v-42.3v-49.7V626.3c-46.5-44.4-89.9-86.3-130-125.8c-16.9-16.9-34.4-34-52.3-51.3s-34.9-33.7-50.8-49.2c-15.9-15.5-30.5-29.8-43.9-42.8c-13.4-13-24.3-23.4-32.8-31.2c-14.8-13.4-24.8-26.6-30.1-39.6c-5.3-13-6.5-24.7-3.7-34.9c2.8-10.2,9.7-18.1,20.6-23.8s24.8-8.5,41.8-8.5h50.8h99.4h124.8h134.3h121.6H786L786,219.2z M632.7,377.8H583l105.7-98.3H465.6h-82.5h-74h-52.9h-22.2c-14.1-1.4-24.1,1.6-30.1,9c-6,7.4-3,16,9,25.9c9.2,8.5,19.2,17.8,30.1,28s21.3,20.3,31.2,30.1c11.3,11.3,22.9,22.6,34.9,33.8h357.4c16.2-13.4,30.7-25.7,43.3-37c11.3-9.9,22.2-19.4,32.8-28.5c10.6-9.2,18.3-15.9,23.3-20.1c13.4-12,17.3-22.2,11.6-30.7s-17.6-12-35.9-10.6L632.7,377.8z"/></g>
</svg>