<?xml version="1.0" encoding="UTF-8" standalone="no"?> <svg class="svg-icon" style="width: 1em; height: 1em;vertical-align: middle;fill: currentColor;overflow: hidden;" viewBox="0 0 1024 1024" version="1.1" xmlns="http://www.w3.org/2000/svg"><path d="M317.44 510.634667l66.730667 415.573333A48.128 48.128 0 0 0 437.930667 972.8h182.784a48.128 48.128 0 0 0 53.76-46.592l66.730666-415.573333z" fill="#FF9999" /><path d="M630.272 989.866667H447.488a65.365333 65.365333 0 0 1-70.826667-62.122667l-101.205333-630.272a17.066667 17.066667 0 0 1 17.066667-19.797333H785.066667a17.066667 17.066667 0 0 1 17.066666 19.797333l-101.205333 630.272A65.365333 65.365333 0 0 1 630.272 989.866667zM312.32 311.978667l98.304 611.669333a17.066667 17.066667 0 0 1 0 2.730667c0 6.826667 3.242667 29.525333 36.693333 29.525333h182.954667c34.133333 0 36.693333-24.576 36.693333-29.525333a17.066667 17.066667 0 0 1 0-2.730667l98.304-611.669333z" fill="#DA1C5C" /><path d="M490.154667 974.506667a17.066667 17.066667 0 0 1-17.066667-22.186667L728.917333 128.512a17.066667 17.066667 0 0 1 7.850667-9.045333L913.066667 18.090667a17.066667 17.066667 0 0 1 17.066666 29.696l-170.666666 97.28-252.928 817.322666a17.066667 17.066667 0 0 1-16.384 12.117334z" fill="#2E3192" /><path d="M729.6 543.061333H344.405333a17.066667 17.066667 0 0 1 0-34.133333h385.194667a17.066667 17.066667 0 0 1 0 34.133333zM359.765333 481.450667a17.066667 17.066667 0 0 1-4.608-34.133334 168.448 168.448 0 0 0 111.786667-112.128 17.066667 17.066667 0 0 1 32.426667 10.581334 202.581333 202.581333 0 0 1-134.826667 134.485333 17.066667 17.066667 0 0 1-4.778667 1.194667zM621.738667 866.645333a32.426667 32.426667 0 1 1 32.426666-32.426666 32.426667 32.426667 0 0 1-32.426666 32.426666z m0-34.133333a1.706667 1.706667 0 0 0-1.706667 1.706667c0 1.877333 3.242667 1.877333 3.242667 0a1.706667 1.706667 0 0 0-1.536-1.706667zM452.266667 805.034667a32.426667 32.426667 0 1 1 32.426666-32.426667 32.426667 32.426667 0 0 1-32.426666 32.426667z m0-34.133334a1.706667 1.706667 0 0 0-1.706667 1.706667c0 1.877333 3.242667 1.877333 3.242667 0a1.706667 1.706667 0 0 0-1.536-1.706667zM513.877333 650.922667a32.426667 32.426667 0 1 1 32.426667-32.426667 32.426667 32.426667 0 0 1-32.426667 32.426667z m0-34.133334a1.706667 1.706667 0 0 0-1.706666 1.706667c0 1.877333 3.242667 1.877333 3.242666 0a1.706667 1.706667 0 0 0-1.536-1.706667z" fill="#DA1C5C" /><path d="M313.685333 294.912h-15.36l15.36 169.472a184.832 184.832 0 0 1 0-369.834667c102.4 0 184.832 98.133333 184.832 200.362667H313.685333" fill="#FFF200" /><path d="M313.685333 481.450667a201.898667 201.898667 0 1 1 0-403.968c107.52 0 201.898667 102.4 201.898667 217.429333a17.066667 17.066667 0 0 1-17.066667 17.066667H316.928l13.653333 150.869333a17.066667 17.066667 0 0 1-17.066666 18.602667z m0-369.834667a167.765333 167.765333 0 0 0-18.773333 334.677333l-13.653333-149.845333a17.066667 17.066667 0 0 1 17.066666-18.602667h182.272c-8.362667-90.112-82.773333-166.229333-166.912-166.229333z" fill="#EC3A49" /></svg>